<?xml version="1.0" encoding="UTF-8"?>
<svg version="1.1" xmlns="http://www.w3.org/2000/svg" width="387" height="387">
<path d="M0 0 C127.71 0 255.42 0 387 0 C387 127.71 387 255.42 387 387 C259.29 387 131.58 387 0 387 C0 259.29 0 131.58 0 0 Z " fill="#FE0068" transform="translate(0,0)"/>
<path d="M0 0 C0.98613281 0.35191406 1.97226562 0.70382813 2.98828125 1.06640625 C12.36009913 4.67461568 21.21455137 9.48098936 28 17 C28.88558594 17.80630859 28.88558594 17.80630859 29.7890625 18.62890625 C39.70492072 27.79820371 45.15324037 39.22118108 49 52 C49.3196875 52.95519531 49.639375 53.91039062 49.96875 54.89453125 C52.14090348 62.40656205 52.30811762 69.78070608 52.375 77.5625 C52.38893799 78.60317627 52.40287598 79.64385254 52.41723633 80.71606445 C52.35363391 91.2055079 50.17618491 100.81627038 45.3125 110.125 C44.96292236 110.80385254 44.61334473 111.48270508 44.25317383 112.18212891 C34.30214532 130.93315909 17.50593656 143.38871164 -2.37890625 149.97265625 C-14.48375941 153.40693498 -26.46770017 154.55020211 -39 155 C-38.566875 155.46148437 -38.13375 155.92296875 -37.6875 156.3984375 C-37.130625 157.05070313 -36.57375 157.70296875 -36 158.375 C-35.1646875 159.31472656 -35.1646875 159.31472656 -34.3125 160.2734375 C-30.42778973 168.34346062 -33.94229727 177.82262555 -36.1875 185.9375 C-36.72377642 187.93268922 -37.25522528 189.92913037 -37.78660583 191.92562866 C-38.18102006 193.40648829 -38.57687408 194.88696504 -38.97401428 196.36709595 C-42.03414869 207.79839624 -44.90377103 219.27948302 -47.8125 230.75 C-48.92161825 235.12018945 -50.03256383 239.48990974 -51.14453125 243.859375 C-51.38805328 244.81987259 -51.63157532 245.78037018 -51.88247681 246.76997375 C-52.34901659 248.60290022 -52.81935578 250.43486464 -53.29385376 252.26574707 C-53.78635553 254.17275208 -54.26721021 256.08278665 -54.73910522 257.99499512 C-54.98721954 258.96763306 -55.23533386 259.940271 -55.4909668 260.94238281 C-55.70883347 261.81566223 -55.92670013 262.68894165 -56.15116882 263.58868408 C-57.95780106 268.72087196 -61.56971818 272.04647879 -66 275 C-71.70041644 275.65452045 -77.13014546 275.73458571 -82.5 273.625 C-86.09048191 269.854994 -87.96394264 265.755096 -90 261 C-90.46921875 259.90429688 -90.9384375 258.80859375 -91.421875 257.6796875 C-92.63593068 254.79460013 -93.82806624 251.90240616 -95 249 C-95.17015625 249.53890869 -95.3403125 250.07781738 -95.515625 250.63305664 C-101.7494627 269.96251284 -101.7494627 269.96251284 -107.625 274.09375 C-113.91853792 276.49523157 -120.43254944 276.08103181 -126.5625 273.5 C-132.82749632 267.07436275 -134.43018682 258.38860178 -136.5 249.9375 C-137.10496271 247.5285187 -137.71042818 245.11966359 -138.31640625 242.7109375 C-138.60402832 241.5569043 -138.89165039 240.40287109 -139.18798828 239.21386719 C-140.49854733 234.02679585 -141.93086528 228.87493801 -143.37109375 223.72265625 C-144 221 -144 221 -144 217 C-144.66 217 -145.32 217 -146 217 C-146.24621094 217.886875 -146.49242187 218.77375 -146.74609375 219.6875 C-150.34293917 229.18944679 -159.64718944 236.04675025 -168.61328125 240.21484375 C-174.36580056 242.60959623 -179.58945913 244.13813252 -185.86328125 244.09765625 C-186.74951172 244.09443359 -187.63574219 244.09121094 -188.54882812 244.08789062 C-189.46083984 244.07951172 -190.37285156 244.07113281 -191.3125 244.0625 C-192.24384766 244.05798828 -193.17519531 244.05347656 -194.13476562 244.04882812 C-196.42324373 244.03709234 -198.71158808 244.02067363 -201 244 C-200.97905273 244.57443848 -200.95810547 245.14887695 -200.93652344 245.74072266 C-200.85286236 248.36863374 -200.8011854 250.9962639 -200.75 253.625 C-200.69972656 254.98044922 -200.69972656 254.98044922 -200.6484375 256.36328125 C-200.56429989 262.12670786 -201.09307284 265.45259298 -205 270 C-210.26774762 274.75382102 -214.36319672 275.36973628 -221.27734375 275.26953125 C-225.22741163 274.87849153 -227.13466205 273.72889329 -230 271 C-234.66612468 265.20957069 -235.73074552 260.4509825 -235.64697266 253.13085938 C-235.65573425 252.17693802 -235.66449585 251.22301666 -235.67352295 250.2401886 C-235.69541142 247.10757067 -235.68100127 243.97638064 -235.6640625 240.84375 C-235.66743365 238.65474173 -235.67228876 236.46573529 -235.67855835 234.2767334 C-235.68591542 229.69716506 -235.67526133 225.11808557 -235.65185547 220.53857422 C-235.62336897 214.68083533 -235.63977913 208.82424201 -235.66971779 202.9665451 C-235.68782197 198.44878575 -235.6820183 193.93129611 -235.66907883 189.41352844 C-235.66575347 187.25425581 -235.66980112 185.09495835 -235.68147659 182.93571472 C-235.69423635 179.91286758 -235.67473572 176.89185203 -235.64697266 173.86914062 C-235.66215439 172.5425518 -235.66215439 172.5425518 -235.67764282 171.18916321 C-235.57223797 164.9658724 -233.94084775 160.83657961 -230 156 C-225.17398273 151.66556111 -221.27596173 151.45008279 -215.1015625 151.609375 C-214.26660248 151.61503479 -213.43164246 151.62069458 -212.57138062 151.62652588 C-209.92198734 151.64879777 -207.27397984 151.69897477 -204.625 151.75 C-202.82163421 151.77007698 -201.01824708 151.78832565 -199.21484375 151.8046875 C-194.80936731 151.84863214 -190.40491806 151.91759399 -186 152 C-185.35274705 150.7330749 -184.70866775 149.46452813 -184.06591797 148.1953125 C-183.70690399 147.48906738 -183.34789001 146.78282227 -182.97799683 146.05517578 C-181.73305001 143.43902768 -180.91911781 140.78319386 -180.125 138 C-176.27572772 126.27520512 -169.04706364 121.07236468 -158.34472656 115.65625 C-138.96247736 106.04500608 -138.96247736 106.04500608 -132 104 C-132.28875 103.5153125 -132.5775 103.030625 -132.875 102.53125 C-135.7145469 97.40429032 -136.69535555 93.86085393 -136 88 C-135 86 -135 86 -133 85 C-127.30834327 84.44016491 -124.00388618 84.99766829 -119 88 C-119.05800781 87.33097656 -119.11601562 86.66195312 -119.17578125 85.97265625 C-120.14944879 65.24744719 -109.14213707 46.92511445 -97 31 C-96.28199219 30.04222656 -95.56398437 29.08445313 -94.82421875 28.09765625 C-93.92123047 27.05931641 -93.92123047 27.05931641 -93 26 C-92.34 26 -91.68 26 -91 26 C-91 25.34 -91 24.68 -91 24 C-79.88570746 13.27130537 -66.76952341 5.3666417 -52 1 C-50.8140625 0.608125 -49.628125 0.21625 -48.40625 -0.1875 C-33.3377701 -4.6706841 -14.86428867 -5.59940677 0 0 Z " fill="#3D0477" transform="translate(284,42)"/>
<path d="M0 0 C0.69867188 0.60328125 1.39734375 1.2065625 2.1171875 1.828125 C2.79523438 2.41078125 3.47328125 2.9934375 4.171875 3.59375 C17.91975576 16.32525047 25.56309023 36.16713248 26.5234375 54.67578125 C27.06553155 76.36473892 21.90097278 93.52840534 6.9296875 109.640625 C-11.44344604 126.80164209 -34.32876693 132.76418952 -58.92578125 132.17578125 C-85.68170993 130.98158766 -108.63366765 117.2751337 -126.55834961 97.92675781 C-128.68714733 95.57887715 -130.78137337 93.20048137 -132.8828125 90.828125 C-133.87204916 89.81747629 -134.86634143 88.81137806 -135.8828125 87.828125 C-136.1303125 88.570625 -136.3778125 89.313125 -136.6328125 90.078125 C-138.00776849 93.10302817 -139.24493577 94.81092515 -141.8828125 96.828125 C-143.9453125 97.015625 -143.9453125 97.015625 -145.8828125 95.828125 C-147.6328125 92.265625 -147.6328125 92.265625 -148.8828125 88.828125 C-147.3978125 88.333125 -147.3978125 88.333125 -145.8828125 87.828125 C-146.30433594 87.42722656 -146.72585937 87.02632813 -147.16015625 86.61328125 C-151.68454928 81.91855813 -152.85342747 78.30752348 -152.8828125 71.828125 C-151.46530687 71.94322161 -150.04880081 72.07066158 -148.6328125 72.203125 C-147.84390625 72.27273437 -147.055 72.34234375 -146.2421875 72.4140625 C-143.76195269 72.8493355 -142.02298875 73.51182191 -139.8828125 74.828125 C-139.5528125 75.488125 -139.2228125 76.148125 -138.8828125 76.828125 C-138.6494519 75.80211182 -138.6494519 75.80211182 -138.41137695 74.75537109 C-131.80023276 45.89924303 -123.39481941 22.04633389 -99.8828125 2.828125 C-99.14160156 2.20550781 -98.40039062 1.58289063 -97.63671875 0.94140625 C-69.94152085 -20.41797514 -27.28652274 -22.33416452 0 0 Z " fill="#FE89DA" transform="translate(304.8828125,59.171875)"/>
<path d="M0 0 C0.83496002 0.00565979 1.66992004 0.01131958 2.53018188 0.01715088 C5.17957516 0.03942277 7.82758266 0.08959977 10.4765625 0.140625 C12.27992829 0.16070198 14.08331542 0.17895065 15.88671875 0.1953125 C20.29219519 0.23925714 24.69664444 0.30821899 29.1015625 0.390625 C27.55797049 3.86370703 25.7987277 6.69547325 23.1015625 9.390625 C20.03295898 10.00244141 20.03295898 10.00244141 16.47265625 9.9921875 C14.54969727 10.01539063 14.54969727 10.01539063 12.58789062 10.0390625 C11.2382715 10.03317111 9.88865954 10.02533783 8.5390625 10.015625 C5.89111703 10.01055656 3.24572783 10.02803353 0.59765625 10.0546875 C-0.57611572 10.04904785 -1.7498877 10.0434082 -2.95922852 10.03759766 C-5.85256918 10.13227048 -5.85256918 10.13227048 -7.55832863 11.66124725 C-9.18626251 13.76205615 -9.27518572 14.78059182 -9.27938843 17.41369629 C-9.29207764 18.63763847 -9.29207764 18.63763847 -9.30502319 19.88630676 C-9.29591415 21.22359077 -9.29591415 21.22359077 -9.28662109 22.58789062 C-9.29450653 24.00046394 -9.29450653 24.00046394 -9.30255127 25.4415741 C-9.31577502 28.56017554 -9.30700467 31.6782682 -9.296875 34.796875 C-9.29889505 36.96016539 -9.30180591 39.12345511 -9.30557251 41.28674316 C-9.30999909 45.82290117 -9.30355397 50.35888209 -9.28955078 54.89501953 C-9.27245884 60.71614935 -9.28229822 66.53686424 -9.30026817 72.35797882 C-9.31109693 76.82573587 -9.30766382 81.29339419 -9.2998848 85.76115417 C-9.29788028 87.90781198 -9.30035085 90.05447868 -9.30732346 92.2011261 C-9.31492289 95.19877956 -9.30335467 98.19575645 -9.28662109 101.19335938 C-9.29269379 102.08488205 -9.29876648 102.97640472 -9.30502319 103.89494324 C-9.29656372 104.71090469 -9.28810425 105.52686615 -9.27938843 106.36755371 C-9.27769181 107.43052799 -9.27769181 107.43052799 -9.27596092 108.5149765 C-8.7793135 110.98246843 -7.87435366 111.87170779 -5.8984375 113.390625 C-2.94097258 113.97407976 -2.94097258 113.97407976 0.1015625 113.390625 C2.89955926 111.24993542 3.97597641 110.04416693 4.64746094 106.54980469 C4.6684082 105.48149414 4.68935547 104.41318359 4.7109375 103.3125 C4.74316406 102.15234375 4.77539062 100.9921875 4.80859375 99.796875 C4.82986328 97.98703125 4.82986328 97.98703125 4.8515625 96.140625 C4.88121094 94.91859375 4.91085938 93.6965625 4.94140625 92.4375 C5.01208652 89.42180856 5.06479425 86.4068895 5.1015625 83.390625 C6.21229126 83.360896 6.21229126 83.360896 7.34545898 83.33056641 C10.74364661 83.23452894 14.1412846 83.12517184 17.5390625 83.015625 C18.70373047 82.9846875 19.86839844 82.95375 21.06835938 82.921875 C33.23912314 82.5104689 44.41855435 80.76397805 53.8515625 72.390625 C61.56138891 63.82008163 63.98307064 54.58379839 63.81445312 43.35742188 C63.29457563 33.72804919 59.41437309 25.42525973 52.20703125 18.91796875 C44.80292535 13.5469012 37.08488658 10.71170207 28.1015625 9.390625 C29.7515625 6.420625 31.4015625 3.450625 33.1015625 0.390625 C42.14315393 1.00709714 50.13520644 4.73799353 57.1015625 10.390625 C57.7615625 10.390625 58.4215625 10.390625 59.1015625 10.390625 C60.92885299 8.45531734 62.57051628 6.40014877 64.25 4.3359375 C67.58747025 0.82948142 70.57689418 0.05432791 75.3515625 -0.109375 C80.5803042 -0.01850115 83.44799125 1.31237908 87.4453125 4.58984375 C91.42931501 8.92150686 92.79398852 13.42435105 93.9765625 19.078125 C95.41854709 25.59367911 97.04302222 32.02940072 98.8515625 38.453125 C99.07440918 39.24485107 99.29725586 40.03657715 99.52685547 40.85229492 C100.04902831 42.69917884 100.57486531 44.54502624 101.1015625 46.390625 C103.15006183 43.52086344 103.15006183 43.52086344 104.2890625 40.578125 C106.82664092 36.1154871 110.48328696 32.69976277 115.1015625 30.390625 C121.05858195 29.83349368 126.05364649 29.86882314 131.1015625 33.390625 C135.41243269 37.70149519 137.21192638 41.6222621 139.1015625 47.390625 C142.01969128 38.60363387 144.27780692 29.76678106 146.26245117 20.7277832 C147.74308814 14.19993584 149.23282042 8.43015699 154.6640625 4.078125 C155.26347656 3.58699219 155.86289063 3.09585938 156.48046875 2.58984375 C160.04694804 -0.04849153 162.69702905 0.11097208 167.1015625 0.390625 C173.43876327 1.49083347 177.12490479 3.75337342 181.10546875 8.76953125 C184.28281471 17.13031219 181.18937105 26.10443859 178.9140625 34.328125 C178.37778608 36.32331422 177.84633722 38.31975537 177.31495667 40.31625366 C176.92054244 41.79711329 176.52468842 43.27759004 176.12754822 44.75772095 C173.06741381 56.18902124 170.19779147 67.67010802 167.2890625 79.140625 C166.17994425 83.51081445 165.06899867 87.88053474 163.95703125 92.25 C163.71350922 93.21049759 163.46998718 94.17099518 163.21908569 95.16059875 C162.75254591 96.99352522 162.28220672 98.82548964 161.80770874 100.65637207 C161.31520697 102.56337708 160.83435229 104.47341165 160.36245728 106.38562012 C160.11434296 107.35825806 159.86622864 108.330896 159.6105957 109.33300781 C159.39272903 110.20628723 159.17486237 111.07956665 158.95039368 111.97930908 C157.14376144 117.11149696 153.53184432 120.43710379 149.1015625 123.390625 C143.40114606 124.04514545 137.97141704 124.12521071 132.6015625 122.015625 C129.01108059 118.245619 127.13761986 114.145721 125.1015625 109.390625 C124.63234375 108.29492188 124.163125 107.19921875 123.6796875 106.0703125 C122.46563182 103.18522513 121.27349626 100.29303116 120.1015625 97.390625 C119.93140625 97.92953369 119.76125 98.46844238 119.5859375 99.02368164 C113.3520998 118.35313784 113.3520998 118.35313784 107.4765625 122.484375 C101.18302458 124.88585657 94.66901306 124.47165681 88.5390625 121.890625 C82.27406618 115.46498775 80.67137568 106.77922678 78.6015625 98.328125 C77.99659979 95.9191437 77.39113432 93.51028859 76.78515625 91.1015625 C76.49753418 89.9475293 76.20991211 88.79349609 75.91357422 87.60449219 C74.60301517 82.41742085 73.17069722 77.26556301 71.73046875 72.11328125 C71.1015625 69.390625 71.1015625 69.390625 71.1015625 65.390625 C70.4415625 65.390625 69.7815625 65.390625 69.1015625 65.390625 C68.85535156 66.2775 68.60914063 67.164375 68.35546875 68.078125 C64.75862333 77.58007179 55.45437306 84.43737525 46.48828125 88.60546875 C40.73576194 91.00022123 35.51210337 92.52875752 29.23828125 92.48828125 C27.90893555 92.48344727 27.90893555 92.48344727 26.55273438 92.47851562 C25.1847168 92.46594727 25.1847168 92.46594727 23.7890625 92.453125 C22.85771484 92.44861328 21.92636719 92.44410156 20.96679688 92.43945312 C18.67831877 92.42771734 16.38997442 92.41129863 14.1015625 92.390625 C14.12250977 92.96506348 14.14345703 93.53950195 14.16503906 94.13134766 C14.24870014 96.75925874 14.3003771 99.3868889 14.3515625 102.015625 C14.38507813 102.91925781 14.41859375 103.82289063 14.453125 104.75390625 C14.53726261 110.51733286 14.00848966 113.84321798 10.1015625 118.390625 C4.83381488 123.14444602 0.73836578 123.76036128 -6.17578125 123.66015625 C-10.12584913 123.26911653 -12.03309955 122.11951829 -14.8984375 119.390625 C-19.56456218 113.60019569 -20.62918302 108.8416075 -20.54541016 101.52148438 C-20.55855255 100.09060234 -20.55855255 100.09060234 -20.57196045 98.6308136 C-20.59384892 95.49819567 -20.57943877 92.36700564 -20.5625 89.234375 C-20.56587115 87.04536673 -20.57072626 84.85636029 -20.57699585 82.6673584 C-20.58435292 78.08779006 -20.57369883 73.50871057 -20.55029297 68.92919922 C-20.52180647 63.07146033 -20.53821663 57.21486701 -20.56815529 51.3571701 C-20.58625947 46.83941075 -20.5804558 42.32192111 -20.56751633 37.80415344 C-20.56419097 35.64488081 -20.56823862 33.48558335 -20.57991409 31.32633972 C-20.59267385 28.30349258 -20.57317322 25.28247703 -20.54541016 22.25976562 C-20.55553131 21.37537308 -20.56565247 20.49098053 -20.57608032 19.57978821 C-20.47067547 13.3564974 -18.83928525 9.22720461 -14.8984375 4.390625 C-10.07242023 0.05618611 -6.17439923 -0.15929221 0 0 Z " fill="#FBF5F9" transform="translate(68.8984375,193.609375)"/>
<path d="M0 0 C0.99 0 1.98 0 3 0 C5.475 4.95 5.475 4.95 8 10 C10.7446344 10.58776634 10.7446344 10.58776634 14 10 C15.8081935 8.30641031 17.23298532 6.52305215 18.703125 4.53125 C19.13109375 4.0259375 19.5590625 3.520625 20 3 C20.66 3 21.32 3 22 3 C23.26171875 4.72265625 23.26171875 4.72265625 24.6875 7.0625 C27.65496482 11.67292705 31.02886947 15.25633279 35 19 C35.7425 19.804375 36.485 20.60875 37.25 21.4375 C49.03812607 32.42189021 63.60639056 39.56850637 79 44 C79 44.66 79 45.32 79 46 C78.0925 46.598125 77.185 47.19625 76.25 47.8125 C70.92957475 51.39355545 68.64483018 55.04141581 67 61.1875 C66.67257813 62.40824219 66.34515625 63.62898438 66.0078125 64.88671875 C64.68829836 70.15831978 63.51410019 75.46459883 62.39453125 80.78198242 C61.50554498 84.9640465 60.44316272 88.96425293 59 93 C56.22253582 91.61126791 56.2285645 90.1513579 55.25 87.25 C53.32916389 82.22129422 51.47200199 79.94961834 47 77 C41.4024338 75.1341446 35.92842334 75.03578833 30.625 77.6875 C25.10546378 82.54994857 22.99711055 87.05550194 21 94 C19.15412081 91.23118122 18.44406168 89.49307021 17.59765625 86.3515625 C17.34870605 85.43439453 17.09975586 84.51722656 16.84326172 83.57226562 C16.45678467 82.11336914 16.45678467 82.11336914 16.0625 80.625 C15.79453613 79.63435547 15.52657227 78.64371094 15.25048828 77.62304688 C13.81632012 72.27091658 12.51348365 66.92194974 11.375 61.5 C10.01807787 55.48405043 7.98900825 51.84347106 3.4375 47.625 C-1.43292925 45.32261527 -5.70233927 45.22511828 -11 46 C-15.9002121 48.35936138 -18.73597297 51.77596502 -22 56 C-24.24418635 54.88590274 -26.47577694 53.75281632 -28.69921875 52.59765625 C-34.70942011 49.51006261 -40.52715896 46.94185231 -47 45 C-46.70867187 44.13375 -46.41734375 43.2675 -46.1171875 42.375 C-45.41583076 40.256216 -44.73095745 38.13182907 -44.0703125 36 C-41.11744635 26.62892066 -37.29561502 18.96247113 -28.36694336 14.11303711 C-26.25711984 13.0475158 -24.13309322 12.01817867 -22 11 C-21.1426123 10.59072266 -20.28522461 10.18144531 -19.40185547 9.75976562 C-15.65887483 7.98126654 -11.91152996 6.2121444 -8.16210938 4.44726562 C-6.79989258 3.80241211 -6.79989258 3.80241211 -5.41015625 3.14453125 C-4.58652588 2.75628174 -3.76289551 2.36803223 -2.91430664 1.96801758 C-1.04246838 1.14644408 -1.04246838 1.14644408 0 0 Z " fill="#FD0168" transform="translate(150,149)"/>
<path d="M0 0 C3.35130838 3.33620771 4.15426506 7.5174656 5.234375 11.97265625 C5.43340424 12.76058563 5.63243347 13.54851501 5.8374939 14.36032104 C6.48356077 16.92565217 7.11675843 19.49397608 7.75 22.0625 C8.19156708 23.82454563 8.634118 25.58634499 9.07763672 27.34790039 C9.96720464 30.88369838 10.85271763 34.42047292 11.73535156 37.95800781 C13.48714599 44.96285821 15.30335655 51.95052595 17.125 58.9375 C17.690211 61.1132535 18.25532735 63.28903159 18.8203125 65.46484375 C19.2134562 66.97658473 19.60664787 68.48831324 20 70 C20.39832031 68.7934375 20.79664063 67.586875 21.20703125 66.34375 C21.74210565 64.72913954 22.27726652 63.11455773 22.8125 61.5 C23.07353516 60.70851563 23.33457031 59.91703125 23.60351562 59.1015625 C26.00414852 51.87002638 28.64155445 44.75115871 31.5 37.6875 C31.9021875 36.68074219 32.304375 35.67398438 32.71875 34.63671875 C33.92687129 32.15049354 34.8279901 30.67634611 37 29 C39.875 28.5 39.875 28.5 43 29 C47.34237975 32.55163776 49.12055548 36.09884948 50.625 41.375 C52.13638035 46.39931848 53.88486825 51.19237771 56 56 C56.74736129 57.90964558 57.47819056 59.82589624 58.1875 61.75 C58.53167969 62.67296875 58.87585938 63.5959375 59.23046875 64.546875 C60 67 60 67 60 70 C60.66 70 61.32 70 62 70 C62.16653076 68.35704956 62.16653076 68.35704956 62.33642578 66.6809082 C63.00260403 61.38032329 64.30118765 56.27652969 65.6171875 51.10546875 C66.00392136 49.5634655 66.00392136 49.5634655 66.39846802 47.99031067 C67.21956749 44.7215786 68.04731342 41.45456955 68.875 38.1875 C69.42358579 36.00465997 69.97176667 33.82171813 70.51953125 31.63867188 C71.05172125 29.52334637 71.58426202 27.40810908 72.1171875 25.29296875 C72.36105194 24.32489792 72.60491638 23.35682709 72.85617065 22.35942078 C73.56288741 19.57086065 74.28104799 16.78542707 75 14 C75.25187073 12.99208405 75.50374146 11.98416809 75.76324463 10.94570923 C76.14364899 9.46885147 76.14364899 9.46885147 76.53173828 7.9621582 C76.75660919 7.0743013 76.9814801 6.1864444 77.21316528 5.27168274 C78.3627188 1.95278891 79.88992791 0.55503604 83 -1 C85.5 -1.5625 85.5 -1.5625 88 -1 C90.875 1 90.875 1 93 4 C92.63035949 10.40650985 90.99116215 16.48093755 89.375 22.671875 C89.11211182 23.69620636 88.84922363 24.72053772 88.57836914 25.77590942 C87.723804 29.10188873 86.86235483 32.42603256 86 35.75 C84.81043813 40.35103197 83.6233127 44.95268792 82.4375 49.5546875 C82.14238525 50.69837799 81.84727051 51.84206848 81.54321289 53.02041626 C79.73267485 60.06365309 77.98986013 67.11925743 76.3125 74.1953125 C75.91293767 75.86364923 75.51320427 77.53194501 75.11328125 79.20019531 C74.55906454 81.51391904 74.01068044 83.82814345 73.48193359 86.14782715 C73.00347583 88.24579687 72.50397074 90.33772558 72 92.4296875 C71.731875 93.58710449 71.46375 94.74452148 71.1875 95.93701172 C69.76218229 99.61341714 68.01887992 101.49632847 65 104 C61.9375 104.625 61.9375 104.625 59 104 C55.02191758 99.97902587 53.41941965 95.45320924 51.58203125 90.234375 C51.27931808 89.4003717 50.97660492 88.56636841 50.66471863 87.70709229 C49.70488568 85.05790558 48.75815265 82.40427779 47.8125 79.75 C46.85377192 77.08236013 45.89234959 74.41572672 44.92814636 71.75006104 C44.33011714 70.09429532 43.73570734 68.43721712 43.1452179 66.77874756 C42.05733592 63.11033612 42.05733592 63.11033612 40 60 C39.56429687 61.1859375 39.12859375 62.371875 38.6796875 63.59375 C35.71720754 71.65102601 32.74987124 79.70655903 29.75 87.75 C29.29109375 88.98234375 28.8321875 90.2146875 28.359375 91.484375 C27.68648437 93.22460938 27.68648437 93.22460938 27 95 C26.63745117 95.9580957 26.63745117 95.9580957 26.26757812 96.93554688 C24.87809247 100.43271987 24.2159031 101.8560646 21 104 C17.57025672 104.43783957 15.76526444 104.56740139 12.9453125 102.4765625 C10.3895922 99.22289449 9.6746388 95.9582422 8.8125 92 C8.39459145 90.21322249 7.97519043 88.42679372 7.5546875 86.640625 C7.19842285 85.10245117 7.19842285 85.10245117 6.83496094 83.53320312 C5.30165775 77.04490964 3.65861192 70.58371998 2.03256226 64.11816406 C1.26525116 61.06450281 0.50161422 58.00993035 -0.2615509 54.95523071 C-0.63043305 53.47874857 -0.99956213 52.0023281 -1.36894226 50.52597046 C-2.2727646 46.91344672 -3.17423279 43.30036663 -4.07080078 39.68603516 C-5.4973388 33.94248181 -6.92432499 28.20135281 -8.484375 22.4921875 C-8.69707031 21.71359375 -8.90976563 20.935 -9.12890625 20.1328125 C-9.55405941 18.58728717 -9.98398092 17.04306783 -10.41796875 15.5 C-11.56835787 11.25570721 -12.46056479 7.4387766 -12 3 C-8.27967458 -1.39674823 -5.40387298 -1.60114755 0 0 Z " fill="#3D0578" transform="translate(149,204)"/>
<path d="M0 0 C0.98613281 0.35191406 1.97226562 0.70382813 2.98828125 1.06640625 C12.36009913 4.67461568 21.21455137 9.48098936 28 17 C28.88558594 17.80630859 28.88558594 17.80630859 29.7890625 18.62890625 C39.70492072 27.79820371 45.15324037 39.22118108 49 52 C49.3196875 52.95519531 49.639375 53.91039062 49.96875 54.89453125 C52.14090348 62.40656205 52.30811762 69.78070608 52.375 77.5625 C52.38893799 78.60317627 52.40287598 79.64385254 52.41723633 80.71606445 C52.35363391 91.2055079 50.17618491 100.81627038 45.3125 110.125 C44.96292236 110.80385254 44.61334473 111.48270508 44.25317383 112.18212891 C34.31193327 130.91471535 17.4990224 143.43324292 -2.39453125 149.96875 C-27.54891366 157.16350293 -54.21673829 155.80990409 -77.50390625 143.1484375 C-85.8736761 138.41219624 -93.35969673 132.98083164 -100 126 C-100.639375 125.38125 -101.27875 124.7625 -101.9375 124.125 C-105.85014452 120.32743326 -109.28722369 116.74735854 -112 112 C-112 111.34 -112 110.68 -112 110 C-112.763125 110.763125 -113.52625 111.52625 -114.3125 112.3125 C-115.199375 113.199375 -116.08625 114.08625 -117 115 C-117.474375 115.598125 -117.94875 116.19625 -118.4375 116.8125 C-120 118 -120 118 -122.9375 118.5625 C-126 118 -126 118 -128.3125 115.3125 C-129.81406409 112.3649853 -130.44862987 110.20449769 -131 107 C-137.14159746 109.9085418 -143.27623351 112.83124661 -149.40576172 115.76513672 C-151.52653887 116.77463143 -153.65277004 117.76931413 -155.78515625 118.75390625 C-163.76480225 122.53265474 -170.79306759 126.31642382 -174.25 134.8125 C-174.84676663 136.53707668 -175.42988281 138.26643099 -176 140 C-180.54341443 151.97651007 -180.54341443 151.97651007 -183 155 C-186.1875 156.3125 -186.1875 156.3125 -189 157 C-188.52820313 156.30777344 -188.52820313 156.30777344 -188.046875 155.6015625 C-183.65790517 148.91234945 -180.86506252 141.97038814 -178.625 134.3125 C-175.31003908 124.35007776 -167.00788992 120.09921504 -158.12866211 115.51879883 C-155.1817549 114.06760134 -152.22067737 112.65184906 -149.25 111.25 C-148.24839844 110.76917969 -147.24679688 110.28835937 -146.21484375 109.79296875 C-141.54544307 107.57268419 -136.97688231 105.45582272 -132 104 C-132.28875 103.5153125 -132.5775 103.030625 -132.875 102.53125 C-135.7145469 97.40429032 -136.69535555 93.86085393 -136 88 C-135 86 -135 86 -133 85 C-127.30834327 84.44016491 -124.00388618 84.99766829 -119 88 C-119.05800781 87.33097656 -119.11601562 86.66195312 -119.17578125 85.97265625 C-120.14944879 65.24744719 -109.14213707 46.92511445 -97 31 C-96.28199219 30.04222656 -95.56398438 29.08445313 -94.82421875 28.09765625 C-93.92123047 27.05931641 -93.92123047 27.05931641 -93 26 C-92.34 26 -91.68 26 -91 26 C-91 25.34 -91 24.68 -91 24 C-79.88570746 13.27130537 -66.76952341 5.3666417 -52 1 C-50.8140625 0.608125 -49.628125 0.21625 -48.40625 -0.1875 C-33.3377701 -4.6706841 -14.86428867 -5.59940677 0 0 Z M-81 22 C-81.92296875 22.74894531 -82.8459375 23.49789062 -83.796875 24.26953125 C-105.1775532 42.47934616 -112.93389446 67.24158774 -118 94 C-118.66 93.01 -119.32 92.02 -120 91 C-124.11192754 89.22439493 -127.54533388 88.78787304 -132 89 C-131.97061497 95.47939848 -130.80173678 99.09043313 -126.27734375 103.78515625 C-125.85582031 104.18605469 -125.43429688 104.58695312 -125 105 C-126.485 105.495 -126.485 105.495 -128 106 C-126.79271391 109.51202512 -126.79271391 109.51202512 -125 113 C-122.95702552 113.77193712 -122.95702552 113.77193712 -121 114 C-119.99106869 112.90398831 -118.99311775 111.79786082 -118 110.6875 C-117.443125 110.07261719 -116.88625 109.45773438 -116.3125 108.82421875 C-114.70798502 106.96868665 -114.70798502 106.96868665 -115 104 C-114.27296875 104.88300781 -113.5459375 105.76601562 -112.796875 106.67578125 C-95.57044527 127.35097175 -74.04628414 145.50270291 -46.26904297 148.80517578 C-18.60835217 151.18017376 5.08588593 145.86911738 26.5234375 127.8828125 C38.32969158 116.88244607 46.65888423 100.91440509 47.4375 84.70703125 C47.90781785 60.42865355 42.19771357 38.67321445 25.25 20.625 C9.23860327 5.50865029 -8.65405564 1.32783084 -29.90625 1.69140625 C-48.97582119 2.40414922 -66.49036409 9.73976296 -81 22 Z " fill="#460578" transform="translate(284,42)"/>
<path d="M0 0 C-0.79921875 0.4846875 -1.5984375 0.969375 -2.421875 1.46875 C-18.34470308 11.14814871 -18.34470308 11.14814871 -32.74609375 22.921875 C-35 25 -35 25 -37.453125 26.8671875 C-51.83157211 38.90803431 -62.7195574 59.52611148 -65 78 C-66.22920526 98.57635846 -61.38711338 113.91932994 -50 131 C-54.67168194 129.51276043 -57.98980266 126.79856902 -61.625 123.625 C-62.23384033 123.09914307 -62.84268066 122.57328613 -63.4699707 122.03149414 C-69.4615192 116.76121575 -74.71966662 110.97191687 -80 105 C-80.98921345 103.98932856 -81.983583 102.98330895 -83 102 C-83.2475 102.7425 -83.495 103.485 -83.75 104.25 C-85.12495599 107.27490317 -86.36212327 108.98280015 -89 111 C-91.0625 111.1875 -91.0625 111.1875 -93 110 C-94.75 106.4375 -94.75 106.4375 -96 103 C-94.515 102.505 -94.515 102.505 -93 102 C-93.42152344 101.59910156 -93.84304687 101.19820313 -94.27734375 100.78515625 C-98.80173678 96.09043313 -99.97061497 92.47939848 -100 86 C-98.58249437 86.11509661 -97.16598831 86.24253658 -95.75 86.375 C-94.96109375 86.44460937 -94.1721875 86.51421875 -93.359375 86.5859375 C-90.87914019 87.0212105 -89.14017625 87.68369691 -87 89 C-86.67 89.66 -86.34 90.32 -86 91 C-85.7666394 89.97398682 -85.7666394 89.97398682 -85.52856445 88.92724609 C-78.91742026 60.07111803 -70.51200691 36.21820889 -47 17 C-46.25878906 16.37738281 -45.51757812 15.75476563 -44.75390625 15.11328125 C-34.90632907 7.51852935 -12.68662949 -4.37153739 0 0 Z " fill="#FA67D5" transform="translate(252,45)"/>
<path d="M0 0 C0.93787354 0.02827881 1.87574707 0.05655762 2.84204102 0.08569336 C11.82241239 0.53709804 18.06682431 2.63233146 24.25 9.3125 C27.90914987 14.12934701 29.28047248 18.28729902 29.12890625 24.33984375 C28.22996487 30.20613134 25.30897612 35.78087622 20.875 39.75 C12.73673925 45.1212521 6.45043366 45.19710509 -3.1875 45 C-4.44369141 44.98646484 -5.69988281 44.97292969 -6.99414062 44.95898438 C-10.07987279 44.92378591 -13.16471024 44.87454305 -16.25 44.8125 C-16.16621094 43.69230469 -16.08242187 42.57210937 -15.99609375 41.41796875 C-15.89291555 39.94533444 -15.79006821 38.47267692 -15.6875 37 C-15.60338867 35.89301758 -15.60338867 35.89301758 -15.51757812 34.76367188 C-15.29230276 31.44461484 -15.18744188 29.00017436 -16.25 25.8125 C-16.47735206 23.06413015 -16.61887845 20.37696093 -16.6875 17.625 C-16.73326172 16.89474609 -16.77902344 16.16449219 -16.82617188 15.41210938 C-16.93498185 10.07095896 -15.66352415 6.45817696 -12.20922852 2.34106445 C-8.47926967 -0.56900064 -4.55118349 -0.24097577 0 0 Z " fill="#F9F4F9" transform="translate(90.25,217.1875)"/>
<path d="M0 0 C1 1 1 1 1.5 4 C1.44340822 9.48940281 -2.44147545 13.17569353 -6 17 C-10.3902439 21 -10.3902439 21 -13 21 C-13 21.66 -13 22.32 -13 23 C-13.99 23 -14.98 23 -16 23 C-16 23.66 -16 24.32 -16 25 C-20.3721282 27.1025386 -24.75810164 29.16675932 -29.17626953 31.17089844 C-30.59011214 31.81365741 -31.99759653 32.47041137 -33.40234375 33.1328125 C-38.36418567 35.15685099 -43.32856574 35.32949029 -48.625 35.4375 C-49.34220215 35.45997803 -50.0594043 35.48245605 -50.79833984 35.50561523 C-56.28216981 35.4809361 -59.47885003 34.11005448 -64 31 C-66.62344223 27.90568352 -67.86345761 25.95579676 -68.4375 21.9375 C-67.92397877 18.48957172 -67.1979747 16.71083547 -65 14 C-59.98653177 10.9159809 -55.27838718 10.2564903 -49.5625 9.5625 C-39.21998794 8.15365367 -29.50708187 5.74253275 -19.54296875 2.59765625 C-18.78653076 2.36353027 -18.03009277 2.1294043 -17.25073242 1.88818359 C-15.79469219 1.43489848 -14.3426125 0.96859965 -12.89575195 0.48681641 C-8.23984101 -0.96783935 -4.75004984 -1.08451393 0 0 Z " fill="#FEB8E8" transform="translate(311,138)"/>
<path d="M0 0 C2.51625 -0.061875 5.0325 -0.12375 7.625 -0.1875 C8.79603271 -0.22846802 8.79603271 -0.22846802 9.99072266 -0.27026367 C15.90028893 -0.34002626 19.88935662 1.11152961 24.375 5.125 C26.64755852 9.14568045 26.7953857 12.48220923 26 17 C23.91778235 21.09007039 22.23928112 23.30409318 18 25 C15.89355469 25.22705078 15.89355469 25.22705078 13.671875 25.1953125 C12.9509668 25.19031738 12.23005859 25.18532227 11.48730469 25.18017578 C10.58399414 25.16196777 9.68068359 25.14375977 8.75 25.125 C4.41875 25.063125 4.41875 25.063125 0 25 C0 16.75 0 8.5 0 0 Z " fill="#FF086C" transform="translate(83,227)"/>
<path d="M0 0 C3.81926474 2.35895763 6.63406457 6.08818295 8.125 10.3125 C8.69642857 18.3125 8.69642857 18.3125 6.125 21.3125 C1.99189153 23.83884992 -1.7230141 24.66928596 -6.5 23.8125 C-11.49872101 22.41389412 -15.27762052 19.98216881 -18.00390625 15.42578125 C-19.52931988 11.7251141 -19.64090367 8.22557147 -18.875 4.3125 C-13.87893799 -2.12979049 -7.514726 -1.79699969 0 0 Z " fill="#FEB7E8" transform="translate(230.875,147.6875)"/>
<path d="M0 0 C10.33847939 8.81811477 15.64234491 24.83074566 17 38 C18.51014466 61.17715588 14.70760257 78.46055341 -0.0859375 96.55078125 C-8.82452122 105.95531651 -25.0929047 117.55690744 -38.40625 118.15234375 C-39.2621875 118.10207031 -40.118125 118.05179687 -41 118 C-38.15431797 116.10287864 -35.59991367 114.95329009 -32.4375 113.6875 C-30.29097356 112.79332872 -28.14512405 111.89753043 -26 111 C-25.14535156 110.65324219 -24.29070312 110.30648437 -23.41015625 109.94921875 C-8.89406645 103.47932459 2.72712495 89.33541763 9 75 C14.98149275 58.9814513 16.2455615 37.14079268 10 21 C9.01305095 19.32557193 8.01298992 17.65880354 7 16 C5.94800554 13.48991028 5.00636382 10.95470882 4.0625 8.40234375 C2.97964935 5.95398658 1.60799214 4.12419416 0 2 C0 1.34 0 0.68 0 0 Z " fill="#F4C2E6" transform="translate(314,70)"/>
<path d="M0 0 C0.5775 0.37125 1.155 0.7425 1.75 1.125 C1.42 2.115 1.09 3.105 0.75 4.125 C0.75 3.465 0.75 2.805 0.75 2.125 C-5.39159746 5.0335418 -11.52623351 7.95624661 -17.65576172 10.89013672 C-19.77653887 11.89963143 -21.90277004 12.89431413 -24.03515625 13.87890625 C-32.01480225 17.65765474 -39.04306759 21.44142382 -42.5 29.9375 C-43.09676663 31.66207668 -43.67988281 33.39143099 -44.25 35.125 C-48.79341443 47.10151007 -48.79341443 47.10151007 -51.25 50.125 C-54.4375 51.4375 -54.4375 51.4375 -57.25 52.125 C-56.93546875 51.66351563 -56.6209375 51.20203125 -56.296875 50.7265625 C-51.90790517 44.03734945 -49.11506252 37.09538814 -46.875 29.4375 C-43.56112885 19.47835285 -35.24817032 15.18485868 -26.34643555 10.64379883 C-23.36722664 9.19554842 -20.37568842 7.77817166 -17.375 6.375 C-15.3566881 5.4220502 -13.33845566 4.4689321 -11.3203125 3.515625 C-10.44133301 3.10344727 -9.56235352 2.69126953 -8.65673828 2.26660156 C-7.10618696 1.53111993 -5.57535223 0.75172618 -4.07373047 -0.07910156 C-2.25 -0.875 -2.25 -0.875 0 0 Z " fill="#4F0174" transform="translate(152.25,146.875)"/>
<path d="M0 0 C10.40401686 8.87401438 15.68180772 24.62045755 16.8125 37.9375 C16.89472161 39.62415412 16.96541652 41.31169716 17 43 C16.67 43 16.34 43 16 43 C15.67 46.96 15.34 50.92 15 55 C14.67 55 14.34 55 14 55 C13.98541748 54.43192627 13.97083496 53.86385254 13.95581055 53.27856445 C13.7629862 33.84441391 13.7629862 33.84441391 7 16 C5.94800554 13.48991028 5.00636382 10.95470882 4.0625 8.40234375 C2.97964935 5.95398658 1.60799214 4.12419416 0 2 C0 1.34 0 0.68 0 0 Z " fill="#E7B2DD" transform="translate(314,70)"/>
<path d="M0 0 C0.66 0 1.32 0 2 0 C2.33 2.31 2.66 4.62 3 7 C2.67 7 2.34 7 2 7 C1.67 10.96 1.34 14.92 1 19 C0.67 19 0.34 19 0 19 C0 12.73 0 6.46 0 0 Z " fill="#F7B9E3" transform="translate(328,106)"/>
</svg>
